<svg width="18" height="13" viewBox="0 0 18 13" fill="none" xmlns="http://www.w3.org/2000/svg">
<path d="M0.25 0.386719V10.3867H17.75V0.386719H0.25ZM6.51953 9.13672H3.37891C3.37891 8.09766 2.53906 7.25781 1.5 7.25781V4.13672C2.87891 4.13672 4 3.01562 4 1.63672H6.51953C5.74219 2.55469 5.25 3.89453 5.25 5.38672C5.25 6.87891 5.74219 8.21875 6.51953 9.13672ZM16.5 7.25781C15.4844 7.25781 14.625 8.09766 14.625 9.13672H11.4805C12.2578 8.21875 12.75 6.87891 12.75 5.38672C12.75 3.89453 12.2578 2.55469 11.4805 1.63672H14C14 3.01562 15.1211 4.13672 16.5 4.13672V7.25781ZM0.25 11.6367H17.75V12.8867H0.25V11.6367Z" fill="white"/>
</svg>
