<svg width="22" height="22" viewBox="0 0 22 22" fill="none" xmlns="http://www.w3.org/2000/svg">
<path d="M11.0001 3.66666C14.5476 3.66666 17.4167 6.53583 17.4167 10.0833V11.9167H14.7401L19.2501 16.4267V10.0833C19.2501 7.89529 18.3809 5.79687 16.8337 4.2497C15.2865 2.70252 13.1881 1.83333 11.0001 1.83333C9.21258 1.83333 7.55341 2.40166 6.20591 3.37333L7.52591 4.69333C8.55941 4.02037 9.7668 3.66357 11.0001 3.66666ZM2.08091 1.57666L0.916748 2.74999L3.96925 5.79333C3.17225 7.08232 2.75008 8.56784 2.75008 10.0833V16.5C2.75008 18.0217 3.97841 19.25 5.50008 19.25H8.25008V11.9167H4.58341V10.0833C4.58341 9.01083 4.84925 8.01166 5.30758 7.13166L13.7501 15.5833V19.25H16.5001C16.7751 19.25 17.0409 19.195 17.2884 19.1217L19.2501 21.0833L20.4142 19.9192L2.08091 1.57666Z" fill="white"/>
</svg>
