<svg width="22" height="22" viewBox="0 0 22 22" fill="none" xmlns="http://www.w3.org/2000/svg">
<path d="M11 0.916504C8.81196 0.916504 6.71354 1.7857 5.16637 3.33287C3.61919 4.88005 2.75 6.97847 2.75 9.1665V15.5832C2.75 17.1048 3.97833 18.3332 5.5 18.3332H8.25V10.9998H4.58333V9.1665C4.58333 5.619 7.4525 2.74984 11 2.74984C14.5475 2.74984 17.4167 5.619 17.4167 9.1665V10.9998H13.75V18.3332H16.5C18.0217 18.3332 19.25 17.1048 19.25 15.5832V9.1665C19.25 6.97847 18.3808 4.88005 16.8336 3.33287C15.2865 1.7857 13.188 0.916504 11 0.916504Z" fill="white"/>
</svg>
