<svg width="14" height="20" viewBox="0 0 14 20" fill="none" xmlns="http://www.w3.org/2000/svg">
<path fill-rule="evenodd" clip-rule="evenodd" d="M11.2481 2.66872C10.1278 1.5481 8.6145 0.908769 7.03009 0.886719H6.97009C5.38555 0.908449 3.87202 1.54757 2.75148 2.66811C1.63094 3.78865 0.991818 5.30218 0.970088 6.88672C0.950588 8.01172 1.26709 9.11722 1.87909 10.0622L6.60109 19.6367H7.40059L12.1211 10.0622C12.7346 9.11722 13.0511 8.01172 13.0301 6.88672C13.008 5.30231 12.3687 3.78901 11.2481 2.66872ZM6.88759 2.38672L7.01059 2.40172L7.12159 2.38672C8.29994 2.43804 9.41386 2.93882 10.2344 3.78611C11.0549 4.6334 11.5196 5.76283 11.5331 6.94222C11.5446 7.77926 11.3002 8.59985 10.8326 9.29422L10.8026 9.34522L10.7771 9.39772L7.00009 17.0552L3.22459 9.40522L3.19909 9.34672L3.16909 9.29572C2.70151 8.60135 2.45711 7.78076 2.46859 6.94372C2.48138 5.76296 2.94668 4.63211 3.76857 3.78427C4.59046 2.93642 5.7063 2.4362 6.88609 2.38672H6.88759ZM7.80559 5.64022C7.6418 5.5307 7.45804 5.45451 7.2648 5.416C7.07157 5.3775 6.87264 5.37743 6.67938 5.4158C6.48611 5.45418 6.3023 5.53024 6.13844 5.63965C5.97457 5.74906 5.83386 5.88968 5.72434 6.05347C5.61482 6.21726 5.53863 6.40102 5.50012 6.59425C5.46162 6.78749 5.46155 6.98642 5.49992 7.17968C5.5383 7.37294 5.61436 7.55675 5.72377 7.72062C5.83318 7.88449 5.9738 8.0252 6.13759 8.13472C6.46838 8.35591 6.87349 8.43663 7.2638 8.35913C7.65411 8.28164 7.99765 8.05226 8.21884 7.72147C8.44003 7.39068 8.52075 6.98557 8.44325 6.59526C8.36575 6.20495 8.13638 5.86141 7.80559 5.64022ZM5.30509 4.39222C5.63238 4.16215 6.00238 3.99987 6.39331 3.91492C6.78425 3.82998 7.18823 3.82408 7.58148 3.89758C7.97473 3.97108 8.34931 4.12249 8.68318 4.3429C9.01704 4.56332 9.30345 4.84828 9.52555 5.18103C9.74765 5.51378 9.90095 5.88758 9.97644 6.28046C10.0519 6.67333 10.0481 7.07734 9.96509 7.4687C9.88212 7.86006 9.72171 8.23088 9.49331 8.55932C9.2649 8.88777 8.9731 9.16722 8.63509 9.38122C7.97344 9.80012 7.17422 9.9437 6.40814 9.78129C5.64206 9.61887 4.96985 9.16334 4.5351 8.512C4.10034 7.86065 3.93752 7.06513 4.08139 6.29535C4.22526 5.52558 4.66443 4.84257 5.30509 4.39222Z" fill="#3DA755"/>
</svg>
