<svg width="28" height="28" viewBox="0 0 28 28" fill="none" xmlns="http://www.w3.org/2000/svg">
<path d="M13.9999 25.6663C7.55642 25.6663 2.33325 20.4432 2.33325 13.9997C2.33325 7.55618 7.55642 2.33301 13.9999 2.33301C20.4434 2.33301 25.6666 7.55618 25.6666 13.9997C25.6666 20.4432 20.4434 25.6663 13.9999 25.6663ZM13.9999 23.333C16.4753 23.333 18.8492 22.3497 20.5996 20.5993C22.3499 18.849 23.3333 16.475 23.3333 13.9997C23.3333 11.5243 22.3499 9.15035 20.5996 7.40001C18.8492 5.64967 16.4753 4.66634 13.9999 4.66634C11.5246 4.66634 9.1506 5.64967 7.40026 7.40001C5.64992 9.15035 4.66659 11.5243 4.66659 13.9997C4.66659 16.475 5.64992 18.849 7.40026 20.5993C9.1506 22.3497 11.5246 23.333 13.9999 23.333ZM12.8333 17.4997H15.1666V19.833H12.8333V17.4997ZM12.8333 8.16634H15.1666V15.1663H12.8333V8.16634Z" fill="#E89B00"/>
</svg>
