<svg width="17" height="17" viewBox="0 0 17 17" fill="none" xmlns="http://www.w3.org/2000/svg">
<path fill-rule="evenodd" clip-rule="evenodd" d="M14.5662 2.34849C14.3937 2.20039 14.1728 2.1208 13.9454 2.12482L13.9329 2.12493H12.75V8.49993H13.9329L13.9454 8.50004C14.1728 8.50406 14.3937 8.42447 14.5662 8.27637C14.7284 8.13719 14.8372 7.94662 14.875 7.73715V2.88771C14.8372 2.67824 14.7284 2.48767 14.5662 2.34849ZM11.3333 9.05795V2.12493H4.04364C3.87282 2.123 3.70705 2.18283 3.57688 2.29347C3.44672 2.40411 3.36092 2.55806 3.33531 2.72697L2.35779 9.10206C2.35777 9.10219 2.35781 9.10192 2.35779 9.10206C2.34246 9.20345 2.34927 9.30737 2.37786 9.40584C2.40649 9.50446 2.45622 9.59566 2.52359 9.67315C2.59097 9.75063 2.67439 9.81254 2.76807 9.85459C2.86175 9.89663 2.96345 9.9178 3.06613 9.91664L3.07415 9.91655L7.08331 9.9166C7.47452 9.9166 7.79165 10.2337 7.79165 10.6249V13.4583C7.79165 13.834 7.9409 14.1943 8.20658 14.46C8.36797 14.6214 8.56429 14.7398 8.77777 14.8079L11.3333 9.05795ZM12.502 9.9166L9.8556 15.8709C9.74191 16.1267 9.48824 16.2916 9.20831 16.2916C8.45687 16.2916 7.7362 15.9931 7.20485 15.4617C6.67349 14.9304 6.37498 14.2097 6.37498 13.4583V11.3333H3.07777C2.77124 11.3361 2.4677 11.2726 2.188 11.147C1.90696 11.0209 1.6567 10.8352 1.45457 10.6027C1.25243 10.3703 1.10326 10.0967 1.01737 9.80083C0.931484 9.505 0.910942 9.19403 0.957168 8.88947L1.93465 2.51456C1.93462 2.51477 1.93469 2.51435 1.93465 2.51456C2.01162 2.0081 2.26905 1.54584 2.65938 1.21405C3.04876 0.88308 3.54433 0.703547 4.05525 0.708264H13.9272C14.4992 0.699811 15.0547 0.900808 15.4889 1.27353C15.9249 1.64773 16.2082 2.16898 16.2853 2.73832C16.2895 2.76979 16.2916 2.80151 16.2916 2.83326V7.7916C16.2916 7.82335 16.2895 7.85507 16.2853 7.88654C16.2082 8.45588 15.9249 8.97713 15.4889 9.35133C15.0547 9.72405 14.4992 9.92505 13.9272 9.9166H12.502Z" fill="#9EA2AE"/>
</svg>
