<svg width="17" height="17" viewBox="0 0 17 17" fill="none" xmlns="http://www.w3.org/2000/svg">
<path fill-rule="evenodd" clip-rule="evenodd" d="M7.1443 1.12915C7.25799 0.873349 7.51166 0.708496 7.79159 0.708496C8.54303 0.708496 9.2637 1.00701 9.79506 1.53836C10.3264 2.06971 10.6249 2.79038 10.6249 3.54183V5.66683H13.9221C14.2287 5.66399 14.5322 5.72751 14.8119 5.85304C15.0929 5.97918 15.3432 6.16491 15.5453 6.39736C15.7475 6.62981 15.8966 6.90343 15.9825 7.19927C16.0684 7.4951 16.089 7.80607 16.0427 8.11063L15.0652 14.4855C15.0652 14.4857 15.0653 14.4853 15.0652 14.4855C14.9883 14.992 14.7309 15.4542 14.3405 15.786C13.9511 16.117 13.4555 16.2966 12.9446 16.2918H2.83325C2.26967 16.2918 1.72916 16.0679 1.33065 15.6694C0.932135 15.2709 0.708252 14.7304 0.708252 14.1668V9.2085C0.708252 8.64491 0.932135 8.10441 1.33065 7.70589C1.72916 7.30738 2.26967 7.0835 2.83325 7.0835H4.49793L7.1443 1.12915ZM4.24992 8.50016H2.83325C2.64539 8.50016 2.46522 8.57479 2.33238 8.70763C2.19955 8.84047 2.12492 9.02063 2.12492 9.2085V14.1668C2.12492 14.3547 2.19955 14.5349 2.33238 14.6677C2.46522 14.8005 2.64539 14.8752 2.83325 14.8752H4.24992V8.50016ZM5.66659 14.8752H12.9563C13.1271 14.8771 13.2929 14.8173 13.423 14.7066C13.5532 14.596 13.639 14.442 13.6646 14.2731L14.6421 7.89803C14.6421 7.89813 14.6421 7.89794 14.6421 7.89803C14.6575 7.7966 14.6506 7.69277 14.622 7.59425C14.5934 7.49564 14.5437 7.40443 14.4763 7.32695C14.4089 7.24946 14.3255 7.18755 14.2318 7.14551C14.1382 7.10346 14.0364 7.08229 13.9338 7.08345L13.9258 7.08354L9.91659 7.0835C9.52538 7.0835 9.20825 6.76636 9.20825 6.37516V3.54183C9.20825 3.16611 9.059 2.80577 8.79332 2.54009C8.63193 2.37871 8.43561 2.26028 8.22213 2.19217L5.66659 7.94215V14.8752Z" fill="#9EA2AE"/>
</svg>
