<svg width="18" height="17" viewBox="0 0 18 17" fill="none" xmlns="http://www.w3.org/2000/svg">
<path d="M2.73047 2.69899H15.2305C15.3765 2.69892 15.5224 2.70819 15.6672 2.72673C15.6181 2.38211 15.4997 2.051 15.3192 1.75336C15.1387 1.45573 14.8998 1.19773 14.6168 0.994931C14.3339 0.792129 14.0129 0.648723 13.673 0.573357C13.3332 0.497991 12.9816 0.492228 12.6395 0.556413L2.35938 2.31149H2.34766C1.70237 2.43489 1.12854 2.79998 0.743359 3.33219C1.32367 2.91943 2.01834 2.69807 2.73047 2.69899ZM15.2305 3.63649H2.73047C2.06765 3.63722 1.43219 3.90084 0.963501 4.36952C0.494817 4.83821 0.231193 5.47367 0.230469 6.13649V13.6365C0.231193 14.2993 0.494817 14.9348 0.963501 15.4035C1.43219 15.8721 2.06765 16.1358 2.73047 16.1365H15.2305C15.8933 16.1358 16.5288 15.8721 16.9974 15.4035C17.4661 14.9348 17.7297 14.2993 17.7305 13.6365V6.13649C17.7297 5.47367 17.4661 4.83821 16.9974 4.36952C16.5288 3.90084 15.8933 3.63722 15.2305 3.63649ZM13.375 11.1365C13.1278 11.1365 12.8861 11.0632 12.6805 10.9258C12.475 10.7885 12.3148 10.5933 12.2201 10.3648C12.1255 10.1364 12.1008 9.88511 12.149 9.64263C12.1972 9.40015 12.3163 9.17742 12.4911 9.00261C12.6659 8.82779 12.8887 8.70874 13.1311 8.66051C13.3736 8.61228 13.6249 8.63703 13.8534 8.73164C14.0818 8.82625 14.277 8.98647 14.4143 9.19203C14.5517 9.39759 14.625 9.63927 14.625 9.88649C14.625 10.218 14.4933 10.536 14.2589 10.7704C14.0245 11.0048 13.7065 11.1365 13.375 11.1365Z" fill="white"/>
</svg>
